<svg version="1.1" id="Layer_1" xmlns="http://www.w3.org/2000/svg" xmlns:xlink="http://www.w3.org/1999/xlink" x="0px" y="0px"
	 width="100%" viewBox="0 0 1000 1000" enable-background="new 0 0 1000 1000" xml:space="preserve">
<path fill="#000000" opacity="1.000000" stroke="none" 
	d="
M489.000000,1001.000000 
	C326.000000,1001.000000 163.500000,1001.000000 1.000000,1001.000000 
	C1.000000,667.666687 1.000000,334.333344 1.000000,1.000000 
	C334.333344,1.000000 667.666687,1.000000 1001.000000,1.000000 
	C1001.000000,334.333344 1001.000000,667.666687 1001.000000,1001.000000 
	C830.500000,1001.000000 660.000000,1001.000000 489.000000,1001.000000 
M587.893433,329.537201 
	C580.405151,325.630157 572.914673,321.727234 565.428955,317.815216 
	C551.997498,310.795898 537.360535,308.654205 522.553406,308.081940 
	C514.732056,307.779633 506.770142,308.757874 498.998535,309.970673 
	C476.028412,313.555359 456.304535,324.072296 439.140381,339.477051 
	C422.376617,354.522430 412.058746,373.627350 405.066498,394.758240 
	C403.647369,399.046997 402.647095,403.777008 400.090790,407.320343 
	C395.561371,413.598694 389.565063,418.810547 384.950378,425.037659 
	C378.345825,433.949951 371.029633,442.740784 366.525909,452.716095 
	C358.193359,471.171661 363.778137,488.333527 384.596741,494.473083 
	C395.094910,497.569092 406.537170,497.389282 417.502319,499.026978 
	C420.374817,499.455963 423.703979,500.457214 425.724487,502.361572 
	C437.317535,513.288269 448.741180,524.429138 462.774170,532.242920 
	C476.064270,539.643066 489.830811,545.647583 505.623169,545.170105 
	C516.941650,544.827820 528.279114,545.161926 539.604858,544.985168 
	C542.992371,544.932312 546.513306,544.646423 549.726685,543.662415 
	C569.329102,537.659912 586.706665,527.682800 601.650635,513.614014 
	C614.803162,501.231903 624.160522,486.196716 631.097107,469.689056 
	C635.495605,459.221680 638.154175,448.257660 637.699524,436.705811 
	C637.463867,430.717773 637.590515,424.712006 637.669983,418.715759 
	C637.945068,397.948456 630.579102,379.496796 619.510925,362.565979 
	C611.242737,349.918182 600.422302,339.319366 587.893433,329.537201 
z"/>
<path fill="#C9B774" opacity="1.000000" stroke="none" 
	d="
M588.153076,329.793243 
	C600.422302,339.319366 611.242737,349.918182 619.510925,362.565979 
	C630.579102,379.496796 637.945068,397.948456 637.669983,418.715759 
	C637.590515,424.712006 637.463867,430.717773 637.699524,436.705811 
	C638.154175,448.257660 635.495605,459.221680 631.097107,469.689056 
	C624.160522,486.196716 614.803162,501.231903 601.650635,513.614014 
	C586.706665,527.682800 569.329102,537.659912 549.726685,543.662415 
	C546.513306,544.646423 542.992371,544.932312 539.604858,544.985168 
	C528.279114,545.161926 516.941650,544.827820 505.623169,545.170105 
	C489.830811,545.647583 476.064270,539.643066 462.774170,532.242920 
	C448.741180,524.429138 437.317535,513.288269 425.724487,502.361572 
	C423.703979,500.457214 420.374817,499.455963 417.502319,499.026978 
	C406.537170,497.389282 395.094910,497.569092 384.596741,494.473083 
	C363.778137,488.333527 358.193359,471.171661 366.525909,452.716095 
	C371.029633,442.740784 378.345825,433.949951 384.950378,425.037659 
	C389.565063,418.810547 395.561371,413.598694 400.090790,407.320343 
	C402.647095,403.777008 403.647369,399.046997 405.066498,394.758240 
	C412.058746,373.627350 422.376617,354.522430 439.140381,339.477051 
	C456.304535,324.072296 476.028412,313.555359 498.998535,309.970673 
	C506.770142,308.757874 514.732056,307.779633 522.553406,308.081940 
	C537.360535,308.654205 551.997498,310.795898 565.428955,317.815216 
	C572.914673,321.727234 580.405151,325.630157 588.153076,329.793243 
M389.301666,427.811401 
	C389.172119,428.199615 389.042572,428.587830 388.980865,428.981079 
	C388.980865,428.981079 388.976410,428.913208 388.332001,428.841644 
	C388.182373,429.219330 388.032745,429.597015 387.955139,429.979095 
	C387.955139,429.979095 387.958221,429.906982 387.699677,429.900208 
	C387.699677,429.900208 387.418152,430.230988 387.418152,430.230988 
	C387.418152,430.230988 387.748383,430.288116 387.179504,430.859344 
	C379.244171,439.991791 372.110535,449.589111 369.359650,461.615570 
	C369.359650,461.615570 369.206879,461.600677 368.943665,461.785980 
	C368.943665,461.785980 368.693939,461.989075 368.209534,462.657715 
	C367.818207,467.581177 366.141174,472.660583 369.973511,477.010651 
	C369.973511,477.010651 369.909515,477.022797 369.734741,477.714294 
	C370.476807,478.504211 371.218872,479.294128 371.976227,480.020050 
	C371.976227,480.020050 371.910980,480.028717 371.826141,480.731415 
	C372.206146,480.852142 372.586151,480.972839 372.973541,481.026581 
	C372.973541,481.026581 372.906525,481.033844 372.718414,481.754425 
	C373.134247,481.867493 373.550049,481.980591 373.973358,482.026672 
	C373.973358,482.026672 373.906342,482.033875 373.719086,482.754272 
	C374.134735,482.867462 374.550385,482.980652 374.973267,483.026733 
	C374.973267,483.026733 374.906158,483.033966 374.722748,483.734863 
	C375.138641,483.853638 375.554504,483.972382 375.979248,484.025513 
	C375.979248,484.025513 375.917175,484.048645 375.906219,484.766357 
	C376.931610,485.207733 377.957001,485.649109 378.985718,486.024109 
	C378.985718,486.024109 378.920471,486.036621 379.030518,486.744141 
	C379.682343,486.861053 380.334167,486.977966 380.984711,487.027924 
	C380.984711,487.027924 380.919647,487.043884 381.019745,487.742279 
	C381.675903,487.857483 382.332092,487.972717 382.989258,488.021393 
	C382.989258,488.021393 382.923920,488.034058 383.126709,488.743073 
	C394.286255,493.260925 405.893280,493.354401 418.799133,492.660767 
	C417.119293,490.536285 416.089142,489.233490 415.023621,487.990265 
	C415.023621,487.990265 415.090393,487.971771 415.275818,487.297455 
	C414.822693,486.844116 414.369598,486.390778 413.347778,485.541809 
	C406.456177,470.378662 400.260956,455.019135 400.060974,437.071014 
	C400.060974,430.646729 400.060974,424.222473 400.060974,417.798187 
	C399.618652,417.669464 399.176300,417.540710 398.733978,417.411987 
	C398.123077,418.604675 397.512207,419.797363 396.975189,420.973236 
	C396.975189,420.973236 396.957336,420.899567 396.225983,420.522614 
	C395.779022,421.337616 395.332092,422.152618 394.956055,422.958618 
	C394.956055,422.958618 394.944946,422.888031 394.192017,422.655579 
	C394.095154,423.089783 393.998291,423.524017 393.967651,423.970184 
	C393.967651,423.970184 393.959595,423.903381 393.231232,423.657959 
	C393.124512,424.095245 393.017761,424.532532 392.977020,424.976105 
	C392.977020,424.976105 392.963135,424.911285 392.251312,424.736694 
	C392.138153,425.146545 392.024994,425.556427 391.977234,425.978302 
	C391.977234,425.978302 391.971771,425.912048 391.258423,425.732544 
	C391.141602,426.144165 391.024780,426.555756 390.974854,426.974976 
	C390.974854,426.974976 390.967804,426.907990 390.276031,426.750092 
	C390.154480,427.158539 390.032928,427.566956 389.979279,427.979523 
	C389.979279,427.979523 389.973602,427.911743 389.301666,427.811401 
M573.945007,328.292511 
	C573.296570,328.168457 572.648193,328.044373 572.003052,327.991486 
	C572.003052,327.991486 572.074219,327.987915 571.949402,327.272064 
	C571.301575,327.151123 570.653809,327.030182 570.010986,326.977875 
	C570.010986,326.977875 570.078857,326.966522 569.978088,326.253723 
	C569.320068,326.139771 568.662048,326.025848 568.009521,325.980682 
	C568.009521,325.980682 568.077637,325.969757 567.952515,325.280151 
	C567.299866,325.160492 566.647217,325.040833 566.002319,324.993530 
	C566.002319,324.993530 566.074646,324.985321 565.907959,324.327515 
	C565.266541,324.194977 564.625183,324.062439 563.992432,324.007996 
	C563.992432,324.007996 564.070557,323.999725 563.780579,323.309082 
	C562.092896,322.841370 560.405212,322.373657 557.985901,321.877625 
	C555.538513,321.172150 553.091125,320.466644 550.643738,319.761139 
	C562.253723,331.489044 568.534668,345.911987 575.022949,360.273621 
	C584.508667,357.289581 593.955505,356.004242 603.548767,350.265106 
	C594.217346,343.245880 586.108093,337.146057 577.854370,330.388763 
	C577.234131,330.233917 576.613831,330.079071 576.000183,329.997101 
	C576.000183,329.997101 576.073120,329.990234 575.887817,329.331818 
	C575.258972,329.194122 574.630127,329.056427 574.005066,328.988708 
	C574.005066,328.988708 574.074890,328.982635 573.945007,328.292511 
M555.993164,534.988708 
	C555.993164,534.988708 555.976257,535.062378 556.546753,535.213562 
	C557.406494,534.867188 558.266235,534.520874 559.848816,533.743835 
	C575.175598,527.556458 589.097595,519.298645 601.080383,506.483704 
	C593.098083,504.102478 586.082092,502.167145 579.206604,499.820099 
	C577.893066,499.371735 577.133911,497.299255 576.118958,495.976074 
	C577.730469,495.032593 579.611755,493.004242 580.908386,493.326721 
	C587.847168,495.052582 594.889404,496.800995 601.394470,499.675964 
	C605.624084,501.545258 607.093079,499.984467 609.286865,497.085876 
	C619.475769,483.623413 627.121948,468.938232 630.585144,452.355530 
	C632.183533,444.701874 632.865173,436.856781 634.034729,428.587921 
	C624.951233,428.587921 617.346069,428.587921 609.626465,428.587921 
	C609.626465,426.351135 609.626465,424.467621 609.626465,422.086365 
	C617.646545,422.086365 625.382324,422.086365 633.947998,422.086365 
	C632.721558,416.403961 631.233521,411.412598 630.618774,406.315887 
	C628.507324,388.810272 620.150940,374.172394 610.190674,360.179626 
	C608.629456,357.986267 607.339905,357.402161 604.536438,358.432892 
	C596.940613,361.225616 589.233582,363.849365 581.378662,365.744232 
	C577.764038,366.616180 577.481079,368.412659 578.038635,370.980927 
	C579.732666,378.784760 581.843750,386.501831 583.396667,394.331177 
	C584.332642,399.049622 584.532288,403.914124 585.067261,408.752960 
	C578.477844,409.005402 578.028564,407.927124 576.949890,401.156311 
	C575.392944,391.383759 573.031372,381.740112 571.047119,372.034546 
	C570.433838,369.034698 568.421997,368.742157 565.870911,369.020447 
	C553.186951,370.404083 540.512024,371.920837 527.797913,372.944489 
	C524.175659,373.236145 522.790771,374.069305 522.937622,377.830750 
	C523.194397,384.406921 523.009216,391.000336 523.009216,397.723694 
	C517.865845,397.378571 515.505066,395.441315 515.904846,390.436554 
	C516.261780,385.967987 516.223022,381.427032 515.832825,376.964020 
	C515.713379,375.597717 513.977844,373.398895 512.775696,373.249939 
	C499.089172,371.554108 485.368744,370.114685 471.635071,368.848541 
	C470.517517,368.745483 468.403748,370.227173 468.159546,371.294373 
	C465.625671,382.366760 463.140717,393.462708 461.156860,404.643463 
	C460.167175,410.220917 460.240936,415.987122 459.809967,421.998718 
	C465.431580,421.998718 470.287262,422.440796 475.026672,421.887177 
	C480.991791,421.190430 484.526581,424.064453 487.972015,429.019897 
	C486.487488,429.019897 485.556183,428.984100 484.628265,429.025604 
	C477.707001,429.335175 470.788696,429.808777 463.864624,429.914398 
	C460.633209,429.963654 459.801605,431.449951 460.033936,434.249939 
	C460.470886,439.516693 460.881012,444.785614 461.244965,450.674652 
	C461.450012,451.242157 461.655060,451.809692 461.877869,452.487122 
	C461.877869,452.487122 461.898529,452.596497 461.750031,453.537659 
	C462.789703,459.256470 463.829376,464.975281 464.959229,471.558807 
	C465.723602,475.012146 466.487946,478.465454 467.212921,481.740662 
	C475.713837,482.881592 479.548492,476.855530 484.265350,472.407715 
	C480.711456,465.250732 477.061432,458.411621 473.994476,451.320312 
	C473.328979,449.781647 474.109314,446.405884 475.370972,445.531403 
	C477.232910,444.240814 480.733276,443.283813 482.464905,444.202789 
	C488.500824,447.406250 494.050690,451.517883 499.853912,455.175476 
	C500.730713,455.728119 502.254211,456.244232 502.999176,455.856415 
	C507.961578,453.272980 512.793640,450.439209 518.026672,447.484314 
	C514.333191,443.487762 511.246521,440.094757 508.102264,436.756012 
	C500.052307,428.208252 491.935303,419.723297 483.928558,411.135406 
	C479.806946,406.714722 480.078186,405.121185 485.278687,401.979584 
	C487.529724,400.619720 490.042633,399.670929 492.212524,398.203979 
	C495.970490,395.663452 499.331635,395.921875 503.277069,398.135651 
	C512.598450,403.365997 522.156982,408.173950 531.624695,413.143158 
	C539.155640,417.095886 546.873657,420.736633 554.144409,425.119934 
	C557.230103,426.980164 558.979858,426.727966 561.800537,424.869110 
	C570.765686,418.960999 580.956970,416.805847 591.388123,418.448944 
	C598.925964,419.636261 601.901184,423.785858 598.486145,430.940186 
	C594.581543,439.119965 589.331909,445.868927 581.016418,449.895599 
	C579.404175,450.676270 577.868835,451.651489 576.199402,452.271027 
	C572.420410,453.673370 571.417847,456.825806 570.991943,460.289062 
	C569.934204,468.890839 568.901733,477.497101 568.001343,486.116425 
	C567.000427,495.698669 566.532043,505.356201 565.041321,514.856934 
	C564.520691,518.174988 564.436707,522.566406 560.050171,524.383972 
	C556.918579,525.681519 553.977112,527.430054 550.896423,528.860291 
	C547.143250,530.602783 544.814087,530.372864 543.744141,525.354858 
	C540.258789,509.007812 536.281616,492.765625 532.470825,476.384949 
	C527.071716,478.773621 521.610901,481.189636 516.021545,483.662506 
	C516.021545,485.390961 516.021729,487.048981 516.021545,488.707001 
	C516.020935,494.037933 515.759766,499.385223 516.093567,504.695129 
	C516.419250,509.874115 512.778381,511.543854 509.204041,512.946960 
	C505.468292,514.413391 504.429535,510.267914 503.259949,508.414368 
	C499.627716,502.657928 496.815948,496.383820 493.577850,490.101135 
	C492.607635,490.101135 491.584198,489.927460 490.642700,490.131683 
	C486.901855,490.943146 483.411194,492.555359 480.016907,488.437592 
	C479.121582,487.351410 474.679688,488.709595 472.200012,489.744629 
	C471.578064,490.004242 471.793457,493.512360 472.394592,495.262909 
	C477.192413,509.234619 485.154541,521.279358 496.019684,531.181702 
	C501.447388,536.128357 507.984619,539.629272 515.979919,540.615051 
	C515.979919,534.732788 516.246094,529.400940 515.904297,524.108398 
	C515.568970,518.916321 518.664917,517.047791 523.123779,515.191406 
	C523.123779,524.016663 523.123779,532.289185 523.123779,541.301941 
	C527.587402,540.857239 531.633362,540.454224 536.536011,540.081970 
	C537.892456,539.753601 539.248840,539.425293 540.509338,539.056702 
	C540.509338,539.056702 540.470703,539.153259 541.391479,539.249634 
	C545.280457,538.159485 549.169495,537.069336 552.979797,535.960449 
	C552.979797,535.960449 552.958679,536.038452 553.663574,536.157776 
	C554.464661,535.773560 555.265747,535.389343 555.993164,534.988708 
M408.978943,450.023987 
	C408.978943,450.023987 408.986328,449.944183 408.745239,450.741791 
	C409.491302,453.185486 410.237396,455.629181 410.993134,458.000793 
	C410.993134,458.000793 410.921021,457.991302 410.681152,458.791351 
	C412.444031,463.219940 414.206909,467.648560 415.982025,472.008514 
	C415.982025,472.008514 415.912842,471.999847 415.660706,472.657288 
	C416.360870,474.185272 417.061005,475.713257 417.902557,478.033325 
	C419.613708,481.175232 421.254150,484.358398 423.055481,487.447723 
	C424.932098,490.666077 426.846680,493.411896 431.526093,491.255615 
	C433.944763,490.141083 437.021729,490.544708 439.742035,489.977966 
	C446.829346,488.501404 453.883942,486.867767 460.728546,485.346344 
	C459.992554,482.931458 459.404358,481.256531 458.971771,479.542328 
	C455.127136,464.306946 452.913513,448.866821 452.840149,433.117249 
	C452.833679,431.726288 451.054291,429.153595 450.062622,429.135925 
	C435.488342,428.876190 420.908051,428.957184 406.029602,428.957184 
	C406.029602,431.596802 406.029602,433.876526 405.935394,436.926727 
	C406.611481,439.633453 407.287567,442.340179 407.980164,444.989349 
	C407.980164,444.989349 407.922852,445.006653 407.680878,445.760620 
	C408.140137,447.184509 408.599426,448.608398 408.978943,450.023987 
M556.850159,363.097717 
	C560.154663,362.590973 563.459167,362.084229 567.140686,361.519653 
	C561.396484,345.883698 553.398071,332.670135 540.945740,322.727142 
	C536.002563,318.780090 530.272522,315.295135 523.237854,316.151031 
	C523.237854,332.680664 523.237854,348.825958 523.762878,365.576691 
	C531.262451,365.101929 538.761963,364.627167 546.434509,364.138336 
	C546.434509,364.138336 546.606934,364.118622 547.526733,364.231293 
	C550.307861,363.872620 553.088928,363.513977 556.850159,363.097717 
M423.501526,422.123932 
	C431.825317,422.101105 440.152100,421.939697 448.471436,422.120697 
	C452.014496,422.197784 452.816498,420.860931 453.086670,417.479645 
	C453.760620,409.043518 454.735962,400.604218 456.159851,392.263397 
	C457.400360,384.996979 459.566193,377.891754 460.963348,370.645905 
	C461.225006,369.288910 460.130371,366.587402 459.078735,366.232269 
	C450.992493,363.501465 442.667786,361.465820 434.620758,358.635345 
	C431.108063,357.399750 429.647766,358.505951 427.806885,361.162323 
	C419.969849,372.471252 413.806396,384.647491 410.131317,397.841431 
	C407.992798,405.518799 407.483063,413.649811 406.154236,422.126923 
	C412.235779,422.126923 417.369324,422.126923 423.501526,422.123932 
M563.085022,431.462433 
	C552.128662,437.331879 541.037415,442.965607 530.253601,449.136658 
	C519.311035,455.398590 507.100830,459.681335 498.416443,469.595337 
	C495.408630,473.029022 491.496918,475.659241 488.147888,478.815399 
	C487.471344,479.452972 487.014038,480.975830 487.308929,481.776093 
	C487.527557,482.369415 489.249268,482.915100 490.094879,482.693573 
	C499.561768,480.213684 509.609436,478.881287 518.303040,474.731079 
	C539.557495,464.584564 560.272156,453.285187 581.002747,442.077301 
	C587.226562,438.712372 591.287537,433.058807 593.370178,425.220825 
	C589.769165,425.005951 586.671143,424.116028 583.970215,424.798309 
	C577.135437,426.524994 570.479004,428.957916 563.085022,431.462433 
M483.824158,363.911255 
	C487.246979,364.223267 490.665222,364.603668 494.093597,364.832245 
	C500.170563,365.237366 506.253967,365.745422 512.333984,365.737152 
	C513.549683,365.735504 515.801575,363.633575 515.819336,362.473145 
	C516.054993,347.109802 515.976501,331.741669 515.976501,316.495331 
	C499.380554,315.041687 478.638214,339.337524 472.213104,361.185181 
	C475.787933,362.094604 479.353424,363.001617 483.824158,363.911255 
M469.339050,507.162811 
	C467.649567,503.650543 465.331665,500.289825 464.438446,496.585602 
	C463.445190,492.466461 460.859894,492.649017 458.122101,493.140656 
	C451.551758,494.320496 445.034088,495.797699 438.504883,497.200195 
	C436.374542,497.657806 434.274384,498.255707 431.356201,498.992462 
	C447.280334,517.527222 465.654602,530.643982 488.229279,536.728333 
	C482.086700,527.136536 475.900604,517.476807 469.339050,507.162811 
M563.199707,472.686523 
	C563.751160,468.165710 564.302612,463.644867 564.989502,458.013794 
	C557.053040,462.233124 550.184814,466.089661 543.119873,469.543915 
	C540.103699,471.018677 539.531372,472.809479 540.228821,475.850220 
	C542.049438,483.786255 543.614380,491.780609 545.326904,499.741882 
	C546.845154,506.800171 548.424683,513.845276 549.958557,520.811768 
	C555.931824,519.526001 558.375183,516.395508 558.865356,510.742432 
	C559.941956,498.324829 561.669922,485.963715 563.199707,472.686523 
M537.417297,424.019135 
	C526.086975,418.115936 514.576233,412.526825 503.506256,406.170197 
	C498.370026,403.220825 494.742004,404.300842 490.452728,407.832123 
	C499.175232,417.017395 507.645813,426.046143 516.253052,434.942627 
	C519.291565,438.083221 522.495728,443.033722 525.928345,443.304596 
	C529.873413,443.615967 534.179443,439.699371 538.284546,437.535492 
	C542.142700,435.501831 545.943359,433.359039 550.427063,430.904114 
	C545.685547,428.373810 541.891663,426.349243 537.417297,424.019135 
M483.538208,321.079926 
	C465.519653,326.904205 450.317535,337.151306 436.757538,350.595825 
	C438.089203,351.525055 439.042694,352.579529 440.210693,352.941254 
	C447.000458,355.043945 453.936890,356.713379 460.623047,359.093140 
	C463.952515,360.278168 465.064514,358.948517 466.075104,356.394714 
	C471.458740,342.790039 478.697845,330.382538 490.437256,319.453766 
	C487.658936,320.166199 485.997070,320.592346 483.538208,321.079926 
M483.557434,453.135071 
	C485.622284,457.994080 487.687103,462.853119 489.935394,468.143799 
	C492.609772,465.765930 494.559906,464.032043 496.940887,461.915039 
	C492.420715,458.828186 488.343536,456.043854 483.557434,453.135071 
M509.071381,489.744720 
	C509.071381,488.285706 509.071381,486.826691 509.071381,484.812897 
	C505.961243,485.706818 503.416504,486.438202 500.451019,487.290558 
	C503.278534,492.581604 505.762390,497.229523 508.246216,501.877472 
	C508.521332,501.763428 508.796448,501.649414 509.071564,501.535400 
	C509.071564,497.915222 509.071564,494.295074 509.071381,489.744720 
z"/>
<path fill="#000000" opacity="1.000000" stroke="none" 
	d="
M461.302246,450.053650 
	C460.881012,444.785614 460.470886,439.516693 460.033936,434.249939 
	C459.801605,431.449951 460.633209,429.963654 463.864624,429.914398 
	C470.788696,429.808777 477.707001,429.335175 484.628265,429.025604 
	C485.556183,428.984100 486.487488,429.019897 487.972015,429.019897 
	C484.526581,424.064453 480.991791,421.190430 475.026672,421.887177 
	C470.287262,422.440796 465.431580,421.998718 459.809967,421.998718 
	C460.240936,415.987122 460.167175,410.220917 461.156860,404.643463 
	C463.140717,393.462708 465.625671,382.366760 468.159546,371.294373 
	C468.403748,370.227173 470.517517,368.745483 471.635071,368.848541 
	C485.368744,370.114685 499.089172,371.554108 512.775696,373.249939 
	C513.977844,373.398895 515.713379,375.597717 515.832825,376.964020 
	C516.223022,381.427032 516.261780,385.967987 515.904846,390.436554 
	C515.505066,395.441315 517.865845,397.378571 523.009216,397.723694 
	C523.009216,391.000336 523.194397,384.406921 522.937622,377.830750 
	C522.790771,374.069305 524.175659,373.236145 527.797913,372.944489 
	C540.512024,371.920837 553.186951,370.404083 565.870911,369.020447 
	C568.421997,368.742157 570.433838,369.034698 571.047119,372.034546 
	C573.031372,381.740112 575.392944,391.383759 576.949890,401.156311 
	C578.028564,407.927124 578.477844,409.005402 585.067261,408.752960 
	C584.532288,403.914124 584.332642,399.049622 583.396667,394.331177 
	C581.843750,386.501831 579.732666,378.784760 578.038635,370.980927 
	C577.481079,368.412659 577.764038,366.616180 581.378662,365.744232 
	C589.233582,363.849365 596.940613,361.225616 604.536438,358.432892 
	C607.339905,357.402161 608.629456,357.986267 610.190674,360.179626 
	C620.150940,374.172394 628.507324,388.810272 630.618774,406.315887 
	C631.233521,411.412598 632.721558,416.403961 633.947998,422.086365 
	C625.382324,422.086365 617.646545,422.086365 609.626465,422.086365 
	C609.626465,424.467621 609.626465,426.351135 609.626465,428.587921 
	C617.346069,428.587921 624.951233,428.587921 634.034729,428.587921 
	C632.865173,436.856781 632.183533,444.701874 630.585144,452.355530 
	C627.121948,468.938232 619.475769,483.623413 609.286865,497.085876 
	C607.093079,499.984467 605.624084,501.545258 601.394470,499.675964 
	C594.889404,496.800995 587.847168,495.052582 580.908386,493.326721 
	C579.611755,493.004242 577.730469,495.032593 576.118958,495.976074 
	C577.133911,497.299255 577.893066,499.371735 579.206604,499.820099 
	C586.082092,502.167145 593.098083,504.102478 601.080383,506.483704 
	C589.097595,519.298645 575.175598,527.556458 559.200195,533.896729 
	C557.693115,534.387146 556.834656,534.724731 555.976257,535.062378 
	C555.976257,535.062378 555.993164,534.988708 555.671021,535.000000 
	C554.552124,535.353699 553.755371,535.696106 552.958679,536.038452 
	C552.958679,536.038452 552.979797,535.960449 552.595093,535.982422 
	C548.297180,537.053955 544.383972,538.103577 540.470703,539.153259 
	C540.470703,539.153259 540.509338,539.056702 540.113525,539.039001 
	C538.371643,539.364563 537.025452,539.707886 535.679321,540.051147 
	C531.633362,540.454224 527.587402,540.857239 523.123779,541.301941 
	C523.123779,532.289185 523.123779,524.016663 523.123779,515.191406 
	C518.664917,517.047791 515.568970,518.916321 515.904297,524.108398 
	C516.246094,529.400940 515.979919,534.732788 515.979919,540.615051 
	C507.984619,539.629272 501.447388,536.128357 496.019684,531.181702 
	C485.154541,521.279358 477.192413,509.234619 472.394592,495.262909 
	C471.793457,493.512360 471.578064,490.004242 472.200012,489.744629 
	C474.679688,488.709595 479.121582,487.351410 480.016907,488.437592 
	C483.411194,492.555359 486.901855,490.943146 490.642700,490.131683 
	C491.584198,489.927460 492.607635,490.101135 493.577850,490.101135 
	C496.815948,496.383820 499.627716,502.657928 503.259949,508.414368 
	C504.429535,510.267914 505.468292,514.413391 509.204041,512.946960 
	C512.778381,511.543854 516.419250,509.874115 516.093567,504.695129 
	C515.759766,499.385223 516.020935,494.037933 516.021545,488.707001 
	C516.021729,487.048981 516.021545,485.390961 516.021545,483.662506 
	C521.610901,481.189636 527.071716,478.773621 532.470825,476.384949 
	C536.281616,492.765625 540.258789,509.007812 543.744141,525.354858 
	C544.814087,530.372864 547.143250,530.602783 550.896423,528.860291 
	C553.977112,527.430054 556.918579,525.681519 560.050171,524.383972 
	C564.436707,522.566406 564.520691,518.174988 565.041321,514.856934 
	C566.532043,505.356201 567.000427,495.698669 568.001343,486.116425 
	C568.901733,477.497101 569.934204,468.890839 570.991943,460.289062 
	C571.417847,456.825806 572.420410,453.673370 576.199402,452.271027 
	C577.868835,451.651489 579.404175,450.676270 581.016418,449.895599 
	C589.331909,445.868927 594.581543,439.119965 598.486145,430.940186 
	C601.901184,423.785858 598.925964,419.636261 591.388123,418.448944 
	C580.956970,416.805847 570.765686,418.960999 561.800537,424.869110 
	C558.979858,426.727966 557.230103,426.980164 554.144409,425.119934 
	C546.873657,420.736633 539.155640,417.095886 531.624695,413.143158 
	C522.156982,408.173950 512.598450,403.365997 503.277069,398.135651 
	C499.331635,395.921875 495.970490,395.663452 492.212524,398.203979 
	C490.042633,399.670929 487.529724,400.619720 485.278687,401.979584 
	C480.078186,405.121185 479.806946,406.714722 483.928558,411.135406 
	C491.935303,419.723297 500.052307,428.208252 508.102264,436.756012 
	C511.246521,440.094757 514.333191,443.487762 518.026672,447.484314 
	C512.793640,450.439209 507.961578,453.272980 502.999176,455.856415 
	C502.254211,456.244232 500.730713,455.728119 499.853912,455.175476 
	C494.050690,451.517883 488.500824,447.406250 482.464905,444.202789 
	C480.733276,443.283813 477.232910,444.240814 475.370972,445.531403 
	C474.109314,446.405884 473.328979,449.781647 473.994476,451.320312 
	C477.061432,458.411621 480.711456,465.250732 484.265350,472.407715 
	C479.548492,476.855530 475.713837,482.881592 467.212921,481.740662 
	C466.487946,478.465454 465.723602,475.012146 464.966705,470.719666 
	C463.948975,464.119171 462.923767,458.357849 461.898529,452.596497 
	C461.898529,452.596497 461.877869,452.487122 461.918579,452.108765 
	C461.740295,451.171509 461.521271,450.612579 461.302246,450.053650 
z"/>
<path fill="#000000" opacity="1.000000" stroke="none" 
	d="
M406.029602,436.156250 
	C406.029602,433.876526 406.029602,431.596802 406.029602,428.957184 
	C420.908051,428.957184 435.488342,428.876190 450.062622,429.135925 
	C451.054291,429.153595 452.833679,431.726288 452.840149,433.117249 
	C452.913513,448.866821 455.127136,464.306946 458.971771,479.542328 
	C459.404358,481.256531 459.992554,482.931458 460.728546,485.346344 
	C453.883942,486.867767 446.829346,488.501404 439.742035,489.977966 
	C437.021729,490.544708 433.944763,490.141083 431.526093,491.255615 
	C426.846680,493.411896 424.932098,490.666077 423.055481,487.447723 
	C421.254150,484.358398 419.613708,481.175232 417.918762,477.311279 
	C417.260925,475.059448 416.586884,473.529663 415.912842,471.999847 
	C415.912842,471.999847 415.982025,472.008514 415.988159,471.649231 
	C414.303223,466.857056 412.612122,462.424164 410.921021,457.991302 
	C410.921021,457.991302 410.993134,458.000793 410.989685,457.624023 
	C410.319611,454.812927 409.652985,452.378540 408.986328,449.944183 
	C408.986328,449.944183 408.978943,450.023987 408.978455,449.632996 
	C408.626251,447.830200 408.274536,446.418427 407.922852,445.006653 
	C407.922852,445.006653 407.980164,444.989349 407.956116,444.571625 
	C407.964539,442.411530 408.236237,440.627014 407.939728,438.942566 
	C407.762024,437.932953 406.696228,437.079742 406.029602,436.156250 
z"/>
<path fill="#000000" opacity="1.000000" stroke="none" 
	d="
M423.002197,422.125427 
	C417.369324,422.126923 412.235779,422.126923 406.154236,422.126923 
	C407.483063,413.649811 407.992798,405.518799 410.131317,397.841431 
	C413.806396,384.647491 419.969849,372.471252 427.806885,361.162323 
	C429.647766,358.505951 431.108063,357.399750 434.620758,358.635345 
	C442.667786,361.465820 450.992493,363.501465 459.078735,366.232269 
	C460.130371,366.587402 461.225006,369.288910 460.963348,370.645905 
	C459.566193,377.891754 457.400360,384.996979 456.159851,392.263397 
	C454.735962,400.604218 453.760620,409.043518 453.086670,417.479645 
	C452.816498,420.860931 452.014496,422.197784 448.471436,422.120697 
	C440.152100,421.939697 431.825317,422.101105 423.002197,422.125427 
z"/>
<path fill="#000000" opacity="1.000000" stroke="none" 
	d="
M369.299316,461.692963 
	C372.110535,449.589111 379.244171,439.991791 387.546875,430.546143 
	C387.914215,430.232971 387.958221,429.906982 387.958221,429.906982 
	C387.958221,429.906982 387.955139,429.979095 388.210114,429.937317 
	C388.635529,429.568085 388.805969,429.240662 388.976410,428.913208 
	C388.976410,428.913208 388.980865,428.981079 389.233124,428.937439 
	C389.648102,428.566406 389.810852,428.239075 389.973572,427.911743 
	C389.973602,427.911743 389.979279,427.979523 390.228912,427.931580 
	C390.641632,427.558441 390.804718,427.233215 390.967804,426.907990 
	C390.967804,426.907990 390.974854,426.974976 391.228210,426.933716 
	C391.644989,426.565674 391.808380,426.238861 391.971771,425.912048 
	C391.971771,425.912048 391.977234,425.978302 392.240326,425.950531 
	C392.656647,425.585602 392.809906,425.248444 392.963135,424.911285 
	C392.963135,424.911285 392.977020,424.976105 393.230621,424.932983 
	C393.642700,424.561035 393.801147,424.232208 393.959595,423.903381 
	C393.959595,423.903381 393.967651,423.970184 394.225677,423.930603 
	C394.637451,423.556702 394.791199,423.222351 394.944946,422.888031 
	C394.944946,422.888031 394.956055,422.958618 395.231567,422.878052 
	C395.990509,422.164856 396.473938,421.532227 396.957336,420.899567 
	C396.957336,420.899567 396.975189,420.973236 397.290894,420.855713 
	C398.089050,421.908295 398.883942,423.048706 398.998352,424.253723 
	C399.432404,428.825317 399.646149,433.417786 399.942322,438.002472 
	C400.260956,455.019135 406.456177,470.378662 413.679504,486.066345 
	C414.370972,487.051208 414.730682,487.511475 415.090393,487.971771 
	C415.090393,487.971771 415.023621,487.990265 415.035034,488.361664 
	C415.319000,489.628876 415.591522,490.524689 415.973511,491.780334 
	C414.571045,491.867218 413.452423,492.113831 412.383789,491.975128 
	C402.558899,490.699493 392.742676,489.357025 382.923920,488.034058 
	C382.923920,488.034058 382.989258,488.021393 382.902161,487.732727 
	C382.183258,487.310638 381.551453,487.177277 380.919647,487.043884 
	C380.919647,487.043884 380.984711,487.027924 380.887085,486.746857 
	C380.166473,486.322723 379.543457,486.179688 378.920471,486.036621 
	C378.920471,486.036621 378.985718,486.024109 378.911316,485.707947 
	C377.863708,484.944061 376.890442,484.496338 375.917175,484.048645 
	C375.917175,484.048645 375.979248,484.025513 375.933350,483.772583 
	C375.560364,483.357758 375.233246,483.195862 374.906158,483.033966 
	C374.906158,483.033966 374.973267,483.026733 374.930664,482.773743 
	C374.560852,482.358490 374.233582,482.196167 373.906342,482.033875 
	C373.906342,482.033875 373.973358,482.026672 373.931580,481.773163 
	C373.562012,481.357727 373.234283,481.195770 372.906525,481.033844 
	C372.906525,481.033844 372.973541,481.026581 372.932068,480.773560 
	C372.564056,480.356567 372.237518,480.192657 371.910980,480.028748 
	C371.910980,480.028717 371.976227,480.020050 371.963501,479.714020 
	C371.270325,478.612946 370.589905,477.817871 369.909515,477.022797 
	C369.909515,477.022797 369.973511,477.010651 369.969788,476.610657 
	C369.542023,471.470123 369.117981,466.729584 368.693939,461.989075 
	C368.693939,461.989075 368.943665,461.785980 369.050079,461.730896 
	C369.156494,461.675781 369.299316,461.692963 369.299316,461.692963 
z"/>
<path fill="#0679BF" opacity="1.000000" stroke="none" 
	d="
M563.418091,431.285187 
	C570.479004,428.957916 577.135437,426.524994 583.970215,424.798309 
	C586.671143,424.116028 589.769165,425.005951 593.370178,425.220825 
	C591.287537,433.058807 587.226562,438.712372 581.002747,442.077301 
	C560.272156,453.285187 539.557495,464.584564 518.303040,474.731079 
	C509.609436,478.881287 499.561768,480.213684 490.094879,482.693573 
	C489.249268,482.915100 487.527557,482.369415 487.308929,481.776093 
	C487.014038,480.975830 487.471344,479.452972 488.147888,478.815399 
	C491.496918,475.659241 495.408630,473.029022 498.416443,469.595337 
	C507.100830,459.681335 519.311035,455.398590 530.253601,449.136658 
	C541.037415,442.965607 552.128662,437.331879 563.418091,431.285187 
z"/>
<path fill="#000000" opacity="1.000000" stroke="none" 
	d="
M483.371521,363.909943 
	C479.353424,363.001617 475.787933,362.094604 472.213104,361.185181 
	C478.638214,339.337524 499.380554,315.041687 515.976501,316.495331 
	C515.976501,331.741669 516.054993,347.109802 515.819336,362.473145 
	C515.801575,363.633575 513.549683,365.735504 512.333984,365.737152 
	C506.253967,365.745422 500.170563,365.237366 494.093597,364.832245 
	C490.665222,364.603668 487.246979,364.223267 483.371521,363.909943 
z"/>
<path fill="#000000" opacity="1.000000" stroke="none" 
	d="
M546.606934,364.118622 
	C546.606934,364.118622 546.434509,364.138336 545.861572,364.089905 
	C537.938354,364.351440 530.588135,364.661346 523.237854,364.971252 
	C523.237854,348.825958 523.237854,332.680664 523.237854,316.151031 
	C530.272522,315.295135 536.002563,318.780090 540.945740,322.727142 
	C553.398071,332.670135 561.396484,345.883698 567.140686,361.519653 
	C563.459167,362.084229 560.154663,362.590973 556.025757,363.073090 
	C552.336548,363.405182 549.471741,363.761902 546.606934,364.118622 
z"/>
<path fill="#000000" opacity="1.000000" stroke="none" 
	d="
M469.526794,507.489929 
	C475.900604,517.476807 482.086700,527.136536 488.229279,536.728333 
	C465.654602,530.643982 447.280334,517.527222 431.356201,498.992462 
	C434.274384,498.255707 436.374542,497.657806 438.504883,497.200195 
	C445.034088,495.797699 451.551758,494.320496 458.122101,493.140656 
	C460.859894,492.649017 463.445190,492.466461 464.438446,496.585602 
	C465.331665,500.289825 467.649567,503.650543 469.526794,507.489929 
z"/>
<path fill="#0679BF" opacity="1.000000" stroke="none" 
	d="
M563.165833,473.133026 
	C561.669922,485.963715 559.941956,498.324829 558.865356,510.742432 
	C558.375183,516.395508 555.931824,519.526001 549.958557,520.811768 
	C548.424683,513.845276 546.845154,506.800171 545.326904,499.741882 
	C543.614380,491.780609 542.049438,483.786255 540.228821,475.850220 
	C539.531372,472.809479 540.103699,471.018677 543.119873,469.543915 
	C550.184814,466.089661 557.053040,462.233124 564.989502,458.013794 
	C564.302612,463.644867 563.751160,468.165710 563.165833,473.133026 
z"/>
<path fill="#0679BF" opacity="1.000000" stroke="none" 
	d="
M537.757568,424.171906 
	C541.891663,426.349243 545.685547,428.373810 550.427063,430.904114 
	C545.943359,433.359039 542.142700,435.501831 538.284546,437.535492 
	C534.179443,439.699371 529.873413,443.615967 525.928345,443.304596 
	C522.495728,443.033722 519.291565,438.083221 516.253052,434.942627 
	C507.645813,426.046143 499.175232,417.017395 490.452728,407.832123 
	C494.742004,404.300842 498.370026,403.220825 503.506256,406.170197 
	C514.576233,412.526825 526.086975,418.115936 537.757568,424.171906 
z"/>
<path fill="#000000" opacity="1.000000" stroke="none" 
	d="
M483.936707,321.049194 
	C485.997070,320.592346 487.658936,320.166199 490.437256,319.453766 
	C478.697845,330.382538 471.458740,342.790039 466.075104,356.394714 
	C465.064514,358.948517 463.952515,360.278168 460.623047,359.093140 
	C453.936890,356.713379 447.000458,355.043945 440.210693,352.941254 
	C439.042694,352.579529 438.089203,351.525055 436.757538,350.595825 
	C450.317535,337.151306 465.519653,326.904205 483.936707,321.049194 
z"/>
<path fill="#000000" opacity="1.000000" stroke="none" 
	d="
M577.998901,331.046204 
	C586.108093,337.146057 594.217346,343.245880 603.548767,350.265106 
	C593.955505,356.004242 584.508667,357.289581 575.022949,360.273621 
	C568.534668,345.911987 562.253723,331.489044 550.643738,319.761139 
	C553.091125,320.466644 555.538513,321.172150 558.559937,322.209747 
	C560.779480,323.027802 562.424988,323.513763 564.070557,323.999725 
	C564.070557,323.999725 563.992432,324.007996 564.086548,324.286316 
	C564.811951,324.704865 565.443298,324.845093 566.074646,324.985321 
	C566.074646,324.985321 566.002319,324.993530 566.093628,325.276062 
	C566.815857,325.695618 567.446716,325.832672 568.077637,325.969757 
	C568.077637,325.969757 568.009521,325.980682 568.109863,326.258698 
	C568.833069,326.679962 569.455933,326.823242 570.078857,326.966522 
	C570.078857,326.966522 570.010986,326.977875 570.110107,327.256165 
	C570.830872,327.685608 571.452515,327.836761 572.074219,327.987915 
	C572.074219,327.987915 572.003052,327.991486 572.078369,328.284912 
	C572.794067,328.713104 573.434448,328.847870 574.074890,328.982635 
	C574.074890,328.982635 574.005066,328.988708 574.084717,329.279114 
	C574.800659,329.709778 575.436890,329.850006 576.073120,329.990234 
	C576.073120,329.990234 576.000183,329.997101 576.083618,330.273193 
	C576.777649,330.714905 577.388245,330.880554 577.998901,331.046204 
z"/>
<path fill="#0679BF" opacity="1.000000" stroke="none" 
	d="
M483.911865,453.197266 
	C488.343536,456.043854 492.420715,458.828186 496.940887,461.915039 
	C494.559906,464.032043 492.609772,465.765930 489.935394,468.143799 
	C487.687103,462.853119 485.622284,457.994080 483.911865,453.197266 
z"/>
<path fill="#0679BF" opacity="1.000000" stroke="none" 
	d="
M509.071472,490.209808 
	C509.071564,494.295074 509.071564,497.915222 509.071564,501.535400 
	C508.796448,501.649414 508.521332,501.763428 508.246216,501.877472 
	C505.762390,497.229523 503.278534,492.581604 500.451019,487.290558 
	C503.416504,486.438202 505.961243,485.706818 509.071381,484.812897 
	C509.071381,486.826691 509.071381,488.285706 509.071472,490.209808 
z"/>
<path fill="#0679BF" opacity="1.000000" stroke="none" 
	d="
M383.025330,488.388550 
	C392.742676,489.357025 402.558899,490.699493 412.383789,491.975128 
	C413.452423,492.113831 414.571045,491.867218 415.973511,491.780334 
	C415.591522,490.524689 415.319000,489.628876 415.052734,488.331879 
	C416.089142,489.233490 417.119293,490.536285 418.799133,492.660767 
	C405.893280,493.354401 394.286255,493.260925 383.025330,488.388550 
z"/>
<path fill="#0679BF" opacity="1.000000" stroke="none" 
	d="
M523.500366,365.273987 
	C530.588135,364.661346 537.938354,364.351440 545.775085,364.096954 
	C538.761963,364.627167 531.262451,365.101929 523.500366,365.273987 
z"/>
<path fill="#0679BF" opacity="1.000000" stroke="none" 
	d="
M400.001648,437.536743 
	C399.646149,433.417786 399.432404,428.825317 398.998352,424.253723 
	C398.883942,423.048706 398.089050,421.908295 397.253967,420.864136 
	C397.512207,419.797363 398.123077,418.604675 398.733978,417.411987 
	C399.176300,417.540710 399.618652,417.669464 400.060974,417.798187 
	C400.060974,424.222473 400.060974,430.646729 400.001648,437.536743 
z"/>
<path fill="#0679BF" opacity="1.000000" stroke="none" 
	d="
M410.801086,458.391327 
	C412.612122,462.424164 414.303223,466.857056 415.982056,471.683533 
	C414.206909,467.648560 412.444031,463.219940 410.801086,458.391327 
z"/>
<path fill="#0679BF" opacity="1.000000" stroke="none" 
	d="
M461.824280,453.067078 
	C462.923767,458.357849 463.948975,464.119171 464.921631,470.287292 
	C463.829376,464.975281 462.789703,459.256470 461.824280,453.067078 
z"/>
<path fill="#0679BF" opacity="1.000000" stroke="none" 
	d="
M368.451721,462.323395 
	C369.117981,466.729584 369.542023,471.470123 369.961823,476.642212 
	C366.141174,472.660583 367.818207,467.581177 368.451721,462.323395 
z"/>
<path fill="#0679BF" opacity="1.000000" stroke="none" 
	d="
M540.931091,539.201416 
	C544.383972,538.103577 548.297180,537.053955 552.634460,535.991699 
	C549.169495,537.069336 545.280457,538.159485 540.931091,539.201416 
z"/>
<path fill="#0679BF" opacity="1.000000" stroke="none" 
	d="
M405.982513,436.541504 
	C406.696228,437.079742 407.762024,437.932953 407.939728,438.942566 
	C408.236237,440.627014 407.964539,442.411530 407.947876,444.600403 
	C407.287567,442.340179 406.611481,439.633453 405.982513,436.541504 
z"/>
<path fill="#0679BF" opacity="1.000000" stroke="none" 
	d="
M547.066833,364.174957 
	C549.471741,363.761902 552.336548,363.405182 555.535706,363.101868 
	C553.088928,363.513977 550.307861,363.872620 547.066833,364.174957 
z"/>
<path fill="#0679BF" opacity="1.000000" stroke="none" 
	d="
M408.865784,450.342987 
	C409.652985,452.378540 410.319611,454.812927 410.984863,457.660095 
	C410.237396,455.629181 409.491302,453.185486 408.865784,450.342987 
z"/>
<path fill="#0679BF" opacity="1.000000" stroke="none" 
	d="
M415.786774,472.328552 
	C416.586884,473.529663 417.260925,475.059448 417.848083,476.915253 
	C417.061005,475.713257 416.360870,474.185272 415.786774,472.328552 
z"/>
<path fill="#0679BF" opacity="1.000000" stroke="none" 
	d="
M563.925537,323.654419 
	C562.424988,323.513763 560.779480,323.027802 558.925720,322.223877 
	C560.405212,322.373657 562.092896,322.841370 563.925537,323.654419 
z"/>
<path fill="#0679BF" opacity="1.000000" stroke="none" 
	d="
M407.801880,445.383636 
	C408.274536,446.418427 408.626251,447.830200 409.018311,449.637146 
	C408.599426,448.608398 408.140137,447.184509 407.801880,445.383636 
z"/>
<path fill="#0679BF" opacity="1.000000" stroke="none" 
	d="
M536.107666,540.066528 
	C537.025452,539.707886 538.371643,539.364563 540.161499,539.059082 
	C539.248840,539.425293 537.892456,539.753601 536.107666,540.066528 
z"/>
<path fill="#0679BF" opacity="1.000000" stroke="none" 
	d="
M375.911682,484.407471 
	C376.890442,484.496338 377.863708,484.944061 378.909668,485.741089 
	C377.957001,485.649109 376.931610,485.207733 375.911682,484.407471 
z"/>
<path fill="#0679BF" opacity="1.000000" stroke="none" 
	d="
M369.822144,477.368530 
	C370.589905,477.817871 371.270325,478.612946 371.955841,479.746033 
	C371.218872,479.294128 370.476807,478.504211 369.822144,477.368530 
z"/>
<path fill="#0679BF" opacity="1.000000" stroke="none" 
	d="
M556.261475,535.137939 
	C556.834656,534.724731 557.693115,534.387146 558.838745,534.112061 
	C558.266235,534.520874 557.406494,534.867188 556.261475,535.137939 
z"/>
<path fill="#0679BF" opacity="1.000000" stroke="none" 
	d="
M553.311157,536.098145 
	C553.755371,535.696106 554.552124,535.353699 555.707886,535.008179 
	C555.265747,535.389343 554.464661,535.773560 553.311157,536.098145 
z"/>
<path fill="#0679BF" opacity="1.000000" stroke="none" 
	d="
M396.591675,420.711090 
	C396.473938,421.532227 395.990509,422.164856 395.196136,422.882568 
	C395.332092,422.152618 395.779022,421.337616 396.591675,420.711090 
z"/>
<path fill="#0679BF" opacity="1.000000" stroke="none" 
	d="
M461.273621,450.364136 
	C461.521271,450.612579 461.740295,451.171509 461.909729,452.053833 
	C461.655060,451.809692 461.450012,451.242157 461.273621,450.364136 
z"/>
<path fill="#0679BF" opacity="1.000000" stroke="none" 
	d="
M565.991333,324.656433 
	C565.443298,324.845093 564.811951,324.704865 564.082153,324.247253 
	C564.625183,324.062439 565.266541,324.194977 565.991333,324.656433 
z"/>
<path fill="#0679BF" opacity="1.000000" stroke="none" 
	d="
M568.015076,325.624939 
	C567.446716,325.832672 566.815857,325.695618 566.089722,325.239868 
	C566.647217,325.040833 567.299866,325.160492 568.015076,325.624939 
z"/>
<path fill="#0679BF" opacity="1.000000" stroke="none" 
	d="
M570.028442,326.610107 
	C569.455933,326.823242 568.833069,326.679962 568.107056,326.224304 
	C568.662048,326.025848 569.320068,326.139771 570.028442,326.610107 
z"/>
<path fill="#0679BF" opacity="1.000000" stroke="none" 
	d="
M572.011841,327.630005 
	C571.452515,327.836761 570.830872,327.685608 570.107544,327.221832 
	C570.653809,327.030182 571.301575,327.151123 572.011841,327.630005 
z"/>
<path fill="#0679BF" opacity="1.000000" stroke="none" 
	d="
M577.926636,330.717468 
	C577.388245,330.880554 576.777649,330.714905 576.080322,330.236725 
	C576.613831,330.079071 577.234131,330.233917 577.926636,330.717468 
z"/>
<path fill="#0679BF" opacity="1.000000" stroke="none" 
	d="
M575.980469,329.661011 
	C575.436890,329.850006 574.800659,329.709778 574.082886,329.244141 
	C574.630127,329.056427 575.258972,329.194122 575.980469,329.661011 
z"/>
<path fill="#0679BF" opacity="1.000000" stroke="none" 
	d="
M387.828949,429.903595 
	C387.958221,429.906982 387.914215,430.232971 387.831299,430.260559 
	C387.748383,430.288116 387.418152,430.230988 387.418152,430.230988 
	C387.418152,430.230988 387.699677,429.900208 387.828949,429.903595 
z"/>
<path fill="#0679BF" opacity="1.000000" stroke="none" 
	d="
M380.969696,487.393066 
	C381.551453,487.177277 382.183258,487.310638 382.901672,487.765991 
	C382.332092,487.972717 381.675903,487.857483 380.969696,487.393066 
z"/>
<path fill="#0679BF" opacity="1.000000" stroke="none" 
	d="
M415.183105,487.634613 
	C414.730682,487.511475 414.370972,487.051208 413.963867,486.264160 
	C414.369598,486.390778 414.822693,486.844116 415.183105,487.634613 
z"/>
<path fill="#0679BF" opacity="1.000000" stroke="none" 
	d="
M378.975494,486.390381 
	C379.543457,486.179688 380.166473,486.322723 380.887726,486.780334 
	C380.334167,486.977966 379.682343,486.861053 378.975494,486.390381 
z"/>
<path fill="#0679BF" opacity="1.000000" stroke="none" 
	d="
M574.009949,328.637573 
	C573.434448,328.847870 572.794067,328.713104 572.076660,328.249329 
	C572.648193,328.044373 573.296570,328.168457 574.009949,328.637573 
z"/>
<path fill="#0679BF" opacity="1.000000" stroke="none" 
	d="
M371.868561,480.380066 
	C372.237518,480.192657 372.564056,480.356567 372.928345,480.807007 
	C372.586151,480.972839 372.206146,480.852142 371.868561,480.380066 
z"/>
<path fill="#0679BF" opacity="1.000000" stroke="none" 
	d="
M374.814453,483.384399 
	C375.233246,483.195862 375.560364,483.357758 375.928955,483.805420 
	C375.554504,483.972382 375.138641,483.853638 374.814453,483.384399 
z"/>
<path fill="#0679BF" opacity="1.000000" stroke="none" 
	d="
M373.812714,482.394073 
	C374.233582,482.196167 374.560852,482.358490 374.927063,482.807312 
	C374.550385,482.980652 374.134735,482.867462 373.812714,482.394073 
z"/>
<path fill="#0679BF" opacity="1.000000" stroke="none" 
	d="
M372.812469,481.394135 
	C373.234283,481.195770 373.562012,481.357727 373.927826,481.806641 
	C373.550049,481.980591 373.134247,481.867493 372.812469,481.394135 
z"/>
<path fill="#0679BF" opacity="1.000000" stroke="none" 
	d="
M388.654205,428.877441 
	C388.805969,429.240662 388.635529,429.568085 388.174133,429.935120 
	C388.032745,429.597015 388.182373,429.219330 388.654205,428.877441 
z"/>
<path fill="#0679BF" opacity="1.000000" stroke="none" 
	d="
M369.329468,461.654266 
	C369.299316,461.692963 369.156494,461.675781 369.181702,461.638245 
	C369.206879,461.600677 369.359650,461.615570 369.329468,461.654266 
z"/>
<path fill="#0679BF" opacity="1.000000" stroke="none" 
	d="
M394.568481,422.771790 
	C394.791199,423.222351 394.637451,423.556702 394.192566,423.924622 
	C393.998291,423.524017 394.095154,423.089783 394.568481,422.771790 
z"/>
<path fill="#0679BF" opacity="1.000000" stroke="none" 
	d="
M393.595428,423.780670 
	C393.801147,424.232208 393.642700,424.561035 393.197632,424.929810 
	C393.017761,424.532532 393.124512,424.095245 393.595428,423.780670 
z"/>
<path fill="#0679BF" opacity="1.000000" stroke="none" 
	d="
M392.607239,424.823975 
	C392.809906,425.248444 392.656647,425.585602 392.207642,425.944519 
	C392.024994,425.556427 392.138153,425.146545 392.607239,424.823975 
z"/>
<path fill="#0679BF" opacity="1.000000" stroke="none" 
	d="
M391.615112,425.822296 
	C391.808380,426.238861 391.644989,426.565674 391.194794,426.929932 
	C391.024780,426.555756 391.141602,426.144165 391.615112,425.822296 
z"/>
<path fill="#0679BF" opacity="1.000000" stroke="none" 
	d="
M390.621918,426.829041 
	C390.804718,427.233215 390.641632,427.558441 390.194946,427.929535 
	C390.032928,427.566956 390.154480,427.158539 390.621918,426.829041 
z"/>
<path fill="#0679BF" opacity="1.000000" stroke="none" 
	d="
M389.637634,427.861572 
	C389.810852,428.239075 389.648102,428.566406 389.199219,428.934906 
	C389.042572,428.587830 389.172119,428.199615 389.637634,427.861572 
z"/>
</svg>